<?xml version="1.0" encoding="utf-8"?>
<!-- Generator: Adobe Illustrator 25.0.1, SVG Export Plug-In . SVG Version: 6.00 Build 0)  -->
<svg version="1.1" id="OBJECTS" xmlns="http://www.w3.org/2000/svg" xmlns:xlink="http://www.w3.org/1999/xlink" x="0px" y="0px"
	 viewBox="0 0 105.7 104.2" style="enable-background:new 0 0 105.7 104.2;" xml:space="preserve">
<style type="text/css">
	.st0{fill:none;stroke:#414143;stroke-width:2;stroke-linecap:round;stroke-miterlimit:10;}
	.st1{fill:#49DAC2;}
	.st2{fill:#414143;}
	.st3{fill:#FBF8EE;}
	.st4{fill:#FCB041;}
</style>
<path class="st0" d="M45.2,1c17,0,19.9,27.9,19.9,27.9"/>
<path class="st1" d="M17.9,20.1v23.2c1.9-0.4,3.9-0.6,5.9-0.6c16.9,0,30.6,13.7,30.6,30.6c0,9-5.4,17.7-11.7,24.8H86
	c5.2,0,9.5-4.2,9.5-9.5V20.1H17.9z"/>
<path class="st2" d="M78.5,20.1v68.5c0,5.2,4.2,9.5,9.5,9.5h8.3c5.2,0,9.5-4.2,9.5-9.5V20.1H78.5z"/>
<path class="st3" d="M27.5,29c0,1.4-1.1,2.5-2.5,2.5c-1.4,0-2.5-1.1-2.5-2.5c0-1.4,1.1-2.5,2.5-2.5C26.4,26.6,27.5,27.7,27.5,29z"/>
<path class="st3" d="M58.5,29c0,1.4-1.1,2.5-2.5,2.5c-1.4,0-2.5-1.1-2.5-2.5c0-1.4,1.1-2.5,2.5-2.5C57.4,26.6,58.5,27.7,58.5,29z"/>
<path class="st3" d="M98.6,29c0,1.4-1.1,2.5-2.5,2.5c-1.4,0-2.5-1.1-2.5-2.5c0-1.4,1.1-2.5,2.5-2.5C97.6,26.6,98.6,27.7,98.6,29z"/>
<path class="st0" d="M56.1,28.9c0,0,3-27.9,20-27.9c17,0,19.9,27.9,19.9,27.9"/>
<path class="st0" d="M25.2,28.9c0,0,3-27.9,20-27.9"/>
<path class="st4" d="M23.5,49.2C10.5,49.2,0,59.7,0,72.7c0,16.5,23.5,31.6,23.5,31.6s23.5-15.3,23.5-31.6
	C46.9,59.7,36.4,49.2,23.5,49.2z M23.5,85.5c-8.4,0-15.3-6.8-15.3-15.3C8.2,61.8,15,55,23.5,55c8.4,0,15.3,6.8,15.3,15.3
	C38.7,78.7,31.9,85.5,23.5,85.5z"/>
<path class="st4" d="M23.5,81.4c-6.2,0-11.1-5-11.1-11.1c0-6.2,5-11.1,11.1-11.1c6.2,0,11.1,5,11.1,11.1
	C34.6,76.4,29.6,81.4,23.5,81.4z"/>
</svg>
