<?xml version="1.0" encoding="utf-8"?>
<!-- Generator: Adobe Illustrator 25.0.1, SVG Export Plug-In . SVG Version: 6.00 Build 0)  -->
<svg version="1.1" xmlns="http://www.w3.org/2000/svg" xmlns:xlink="http://www.w3.org/1999/xlink" x="0px" y="0px"
	 viewBox="0 0 458.2 104.2" style="enable-background:new 0 0 458.2 104.2;" xml:space="preserve">
<style type="text/css">
	.st0{fill:none;stroke:#414143;stroke-width:2;stroke-linecap:round;stroke-miterlimit:10;}
	.st1{fill:#49DAC2;}
	.st2{fill:#414143;}
	.st3{fill:#FBF8EE;}
	.st4{fill:#FCB041;}
	.st5{opacity:0.5;fill:#49DAC2;}
	.st6{display:none;}
	.st7{display:inline;fill:#FCB041;}
	.st8{font-family:'Poppins-Bold';}
	.st9{font-size:45.9196px;}
	.st10{display:none;fill:#414143;}
	.st11{font-size:53.5824px;}
</style>
<g id="BACKGROUND">
</g>
<g id="OBJECTS">
	<g>
		<path class="st0" d="M45.2,1c17,0,19.9,27.9,19.9,27.9"/>
		<path class="st1" d="M17.9,20.1v23.2c1.9-0.4,3.9-0.6,5.9-0.6c16.9,0,30.6,13.7,30.6,30.6c0,9-5.4,17.7-11.7,24.8H86
			c5.2,0,9.5-4.2,9.5-9.5V20.1H17.9z"/>
		<path class="st2" d="M78.5,20.1v68.5c0,5.2,4.2,9.5,9.5,9.5h8.3c5.2,0,9.5-4.2,9.5-9.5V20.1H78.5z"/>
		<path class="st3" d="M27.5,29c0,1.4-1.1,2.5-2.5,2.5c-1.4,0-2.5-1.1-2.5-2.5c0-1.4,1.1-2.5,2.5-2.5C26.4,26.6,27.5,27.7,27.5,29z"
			/>
		<path class="st3" d="M58.5,29c0,1.4-1.1,2.5-2.5,2.5c-1.4,0-2.5-1.1-2.5-2.5c0-1.4,1.1-2.5,2.5-2.5C57.4,26.6,58.5,27.7,58.5,29z"
			/>
		<path class="st3" d="M98.6,29c0,1.4-1.1,2.5-2.5,2.5c-1.4,0-2.5-1.1-2.5-2.5c0-1.4,1.1-2.5,2.5-2.5C97.6,26.6,98.6,27.7,98.6,29z"
			/>
		<path class="st0" d="M56.1,28.9c0,0,3-27.9,20-27.9c17,0,19.9,27.9,19.9,27.9"/>
		<path class="st0" d="M25.2,28.9c0,0,3-27.9,20-27.9"/>
		<path class="st4" d="M23.5,49.2C10.5,49.2,0,59.7,0,72.7c0,16.5,23.5,31.6,23.5,31.6s23.5-15.3,23.5-31.6
			C46.9,59.7,36.4,49.2,23.5,49.2z M23.5,85.5c-8.4,0-15.3-6.8-15.3-15.3C8.2,61.8,15,55,23.5,55c8.4,0,15.3,6.8,15.3,15.3
			C38.7,78.7,31.9,85.5,23.5,85.5z"/>
		<path class="st4" d="M11.8,94.8c5.8,5.8,11.6,9.5,11.6,9.5s23.5-15.3,23.5-31.6c0-1.5-0.1-2.9-0.4-4.3
			C47.6,82.2,29.8,99.3,11.8,94.8z"/>
		<path class="st5" d="M66.6,98.1c-3.1-18.9-9.7-36.9-22-47.3c6.1,5.6,9.9,13.6,9.9,22.5c0,9-5.4,17.7-11.7,24.8H66.6z"/>
		<path class="st4" d="M23.5,81.4c-6.2,0-11.1-5-11.1-11.1c0-6.2,5-11.1,11.1-11.1c6.2,0,11.1,5,11.1,11.1
			C34.6,76.4,29.6,81.4,23.5,81.4z"/>
	</g>
</g>
<g id="TEXTS">
	<g class="st6">
		<text transform="matrix(1 0 0 1 124.3701 96.561)" class="st7 st8 st9">Cosas Bonitas</text>
	</g>
	<g>
		<g>
			<path class="st4" d="M128,71.9c1.4-2.5,3.3-4.4,5.8-5.8c2.5-1.4,5.3-2.1,8.4-2.1c3.8,0,7.1,1,9.8,3s4.5,4.8,5.5,8.3h-8.6
				c-0.6-1.3-1.6-2.4-2.7-3.1c-1.2-0.7-2.5-1.1-4-1.1c-2.4,0-4.4,0.8-5.9,2.5c-1.5,1.7-2.2,3.9-2.2,6.8c0,2.8,0.8,5.1,2.2,6.8
				s3.5,2.5,5.9,2.5c1.5,0,2.8-0.4,4-1.1c1.2-0.7,2.1-1.7,2.7-3.1h8.6c-0.9,3.5-2.7,6.2-5.5,8.2c-2.7,2-6,3-9.8,3
				c-3.1,0-5.9-0.7-8.4-2.1c-2.5-1.4-4.4-3.3-5.8-5.8c-1.4-2.5-2.1-5.3-2.1-8.5C125.9,77.2,126.6,74.4,128,71.9z"/>
			<path class="st4" d="M167.1,95.3c-2-1.1-3.6-2.6-4.7-4.6c-1.1-2-1.7-4.3-1.7-7c0-2.6,0.6-5,1.7-7c1.2-2,2.8-3.5,4.8-4.6
				c2-1.1,4.3-1.6,6.8-1.6s4.8,0.5,6.8,1.6c2,1.1,3.6,2.6,4.8,4.6c1.2,2,1.7,4.3,1.7,7s-0.6,5-1.8,7s-2.8,3.5-4.8,4.6
				c-2,1.1-4.3,1.6-6.8,1.6S169.1,96.4,167.1,95.3z M177.7,88.5c1.1-1.1,1.6-2.7,1.6-4.7s-0.5-3.6-1.5-4.7c-1-1.1-2.3-1.7-3.8-1.7
				c-1.5,0-2.8,0.5-3.8,1.6c-1,1.1-1.5,2.7-1.5,4.8c0,2.1,0.5,3.6,1.5,4.7c1,1.1,2.2,1.7,3.7,1.7S176.6,89.6,177.7,88.5z"/>
			<path class="st4" d="M195.9,95.8c-1.7-0.8-3.1-1.8-4.1-3.1c-1-1.3-1.6-2.8-1.7-4.5h7.8c0.1,0.9,0.5,1.6,1.2,2.2s1.6,0.8,2.7,0.8
				c1,0,1.7-0.2,2.3-0.6c0.5-0.4,0.8-0.9,0.8-1.5c0-0.7-0.4-1.3-1.1-1.6c-0.8-0.4-2-0.7-3.7-1.2c-1.8-0.4-3.4-0.9-4.6-1.4
				c-1.2-0.5-2.3-1.2-3.2-2.2c-0.9-1-1.3-2.4-1.3-4.2c0-1.5,0.4-2.8,1.2-4c0.8-1.2,2-2.2,3.6-2.9c1.6-0.7,3.5-1.1,5.6-1.1
				c3.2,0,5.7,0.8,7.6,2.4s2.9,3.7,3.2,6.3h-7.3c-0.1-0.9-0.5-1.6-1.2-2.1s-1.5-0.8-2.6-0.8c-0.9,0-1.6,0.2-2.1,0.5
				c-0.5,0.4-0.7,0.8-0.7,1.4c0,0.7,0.4,1.3,1.2,1.7c0.8,0.4,2,0.7,3.7,1.1c1.9,0.5,3.4,1,4.6,1.4s2.2,1.2,3.1,2.3
				c0.9,1.1,1.4,2.5,1.4,4.2c0,1.5-0.4,2.8-1.3,4c-0.8,1.2-2.1,2.1-3.6,2.8s-3.4,1-5.5,1C199.6,96.9,197.7,96.5,195.9,95.8z"/>
			<path class="st4" d="M217,76.8c1-2,2.3-3.5,4.1-4.6c1.7-1.1,3.6-1.6,5.7-1.6c1.8,0,3.4,0.4,4.8,1.1c1.4,0.7,2.4,1.7,3.1,2.9v-3.6
				h7.9v25.6h-7.9v-3.6c-0.8,1.2-1.8,2.2-3.2,2.9c-1.4,0.7-2.9,1.1-4.8,1.1c-2.1,0-4-0.5-5.7-1.6c-1.7-1.1-3.1-2.6-4.1-4.6
				c-1-2-1.5-4.3-1.5-7S216,78.8,217,76.8z M233.1,79.1c-1.1-1.1-2.4-1.7-4-1.7s-2.9,0.6-4,1.7c-1.1,1.1-1.6,2.7-1.6,4.6
				s0.5,3.5,1.6,4.7c1.1,1.1,2.4,1.7,4,1.7s2.9-0.6,4-1.7c1.1-1.1,1.6-2.7,1.6-4.6S234.2,80.2,233.1,79.1z"/>
			<path class="st4" d="M252.7,95.8c-1.7-0.8-3.1-1.8-4.1-3.1c-1-1.3-1.6-2.8-1.7-4.5h7.8c0.1,0.9,0.5,1.6,1.2,2.2
				c0.7,0.6,1.6,0.8,2.7,0.8c1,0,1.7-0.2,2.3-0.6c0.5-0.4,0.8-0.9,0.8-1.5c0-0.7-0.4-1.3-1.1-1.6c-0.8-0.4-2-0.7-3.7-1.2
				c-1.8-0.4-3.4-0.9-4.6-1.4s-2.3-1.2-3.2-2.2c-0.9-1-1.3-2.4-1.3-4.2c0-1.5,0.4-2.8,1.2-4c0.8-1.2,2-2.2,3.6-2.9
				c1.6-0.7,3.5-1.1,5.6-1.1c3.2,0,5.7,0.8,7.6,2.4c1.9,1.6,2.9,3.7,3.2,6.3h-7.3c-0.1-0.9-0.5-1.6-1.2-2.1
				c-0.7-0.5-1.5-0.8-2.6-0.8c-0.9,0-1.6,0.2-2.1,0.5c-0.5,0.4-0.7,0.8-0.7,1.4c0,0.7,0.4,1.3,1.2,1.7c0.8,0.4,2,0.7,3.7,1.1
				c1.9,0.5,3.4,1,4.6,1.4s2.2,1.2,3.1,2.3c0.9,1.1,1.4,2.5,1.4,4.2c0,1.5-0.4,2.8-1.3,4s-2.1,2.1-3.6,2.8c-1.6,0.7-3.4,1-5.5,1
				C256.4,96.9,254.5,96.5,252.7,95.8z"/>
			<path class="st4" d="M307.6,82.8c1.1,1.5,1.7,3.1,1.7,5c0,2.7-0.9,4.8-2.8,6.4c-1.9,1.6-4.5,2.4-7.9,2.4h-15V64.3h14.5
				c3.3,0,5.8,0.8,7.7,2.2c1.9,1.5,2.8,3.5,2.8,6.1c0,1.9-0.5,3.5-1.5,4.7c-1,1.3-2.3,2.1-4,2.6C305,80.4,306.5,81.4,307.6,82.8z
				 M291.5,77.4h5.1c1.3,0,2.3-0.3,3-0.8c0.7-0.6,1-1.4,1-2.5c0-1.1-0.3-1.9-1-2.5c-0.7-0.6-1.7-0.9-3-0.9h-5.1V77.4z M300.3,89.3
				c0.7-0.6,1.1-1.5,1.1-2.6c0-1.1-0.4-2-1.1-2.7c-0.8-0.6-1.8-1-3.1-1h-5.7v7.1h5.8C298.6,90.2,299.6,89.9,300.3,89.3z"/>
			<path class="st4" d="M318.8,95.3c-2-1.1-3.6-2.6-4.7-4.6c-1.1-2-1.7-4.3-1.7-7c0-2.6,0.6-5,1.7-7c1.2-2,2.8-3.5,4.8-4.6
				c2-1.1,4.3-1.6,6.8-1.6c2.5,0,4.8,0.5,6.8,1.6c2,1.1,3.6,2.6,4.8,4.6c1.2,2,1.7,4.3,1.7,7s-0.6,5-1.8,7c-1.2,2-2.8,3.5-4.8,4.6
				c-2,1.1-4.3,1.6-6.8,1.6C323,96.9,320.8,96.4,318.8,95.3z M329.4,88.5c1.1-1.1,1.6-2.7,1.6-4.7s-0.5-3.6-1.5-4.7
				c-1-1.1-2.3-1.7-3.8-1.7c-1.5,0-2.8,0.5-3.8,1.6c-1,1.1-1.5,2.7-1.5,4.8c0,2.1,0.5,3.6,1.5,4.7c1,1.1,2.2,1.7,3.7,1.7
				C327,90.1,328.3,89.6,329.4,88.5z"/>
			<path class="st4" d="M365.9,73.6c1.8,1.9,2.7,4.6,2.7,8v15h-7.8V82.6c0-1.7-0.4-3-1.3-4c-0.9-0.9-2.1-1.4-3.6-1.4
				s-2.7,0.5-3.6,1.4c-0.9,0.9-1.3,2.3-1.3,4v13.9h-7.9V70.9h7.9v3.4c0.8-1.1,1.9-2,3.2-2.7c1.3-0.7,2.9-1,4.5-1
				C361.7,70.7,364.1,71.6,365.9,73.6z"/>
			<path class="st4" d="M374.7,67.1c-0.9-0.8-1.3-1.8-1.3-3c0-1.2,0.4-2.2,1.3-3.1c0.9-0.8,2-1.2,3.4-1.2c1.3,0,2.5,0.4,3.3,1.2
				c0.9,0.8,1.3,1.8,1.3,3.1c0,1.2-0.4,2.2-1.3,3c-0.9,0.8-2,1.2-3.3,1.2C376.7,68.3,375.5,67.9,374.7,67.1z M381.9,70.9v25.6h-7.9
				V70.9H381.9z"/>
			<path class="st4" d="M401.9,89.9v6.7h-4c-2.8,0-5.1-0.7-6.7-2.1c-1.6-1.4-2.4-3.7-2.4-6.8V77.5h-3.1v-6.5h3.1v-6.2h7.9v6.2h5.1
				v6.5h-5.1v10.3c0,0.8,0.2,1.3,0.6,1.7s1,0.5,1.8,0.5H401.9z"/>
			<path class="st4" d="M406.2,76.8c1-2,2.3-3.5,4.1-4.6c1.7-1.1,3.6-1.6,5.7-1.6c1.8,0,3.4,0.4,4.8,1.1c1.4,0.7,2.4,1.7,3.1,2.9
				v-3.6h7.9v25.6h-7.9v-3.6c-0.8,1.2-1.8,2.2-3.2,2.9c-1.4,0.7-2.9,1.1-4.8,1.1c-2.1,0-4-0.5-5.7-1.6c-1.7-1.1-3.1-2.6-4.1-4.6
				c-1-2-1.5-4.3-1.5-7S405.2,78.8,406.2,76.8z M422.3,79.1c-1.1-1.1-2.4-1.7-4-1.7s-2.9,0.6-4,1.7c-1.1,1.1-1.6,2.7-1.6,4.6
				s0.5,3.5,1.6,4.7c1.1,1.1,2.4,1.7,4,1.7s2.9-0.6,4-1.7c1.1-1.1,1.6-2.7,1.6-4.6S423.4,80.2,422.3,79.1z"/>
			<path class="st4" d="M441.9,95.8c-1.7-0.8-3.1-1.8-4.1-3.1c-1-1.3-1.6-2.8-1.7-4.5h7.8c0.1,0.9,0.5,1.6,1.2,2.2s1.6,0.8,2.7,0.8
				c1,0,1.7-0.2,2.3-0.6c0.5-0.4,0.8-0.9,0.8-1.5c0-0.7-0.4-1.3-1.1-1.6c-0.8-0.4-2-0.7-3.7-1.2c-1.8-0.4-3.4-0.9-4.6-1.4
				s-2.3-1.2-3.2-2.2c-0.9-1-1.3-2.4-1.3-4.2c0-1.5,0.4-2.8,1.2-4c0.8-1.2,2-2.2,3.6-2.9c1.6-0.7,3.5-1.1,5.6-1.1
				c3.2,0,5.7,0.8,7.6,2.4c1.9,1.6,2.9,3.7,3.2,6.3h-7.3c-0.1-0.9-0.5-1.6-1.2-2.1c-0.7-0.5-1.5-0.8-2.6-0.8c-0.9,0-1.6,0.2-2.1,0.5
				c-0.5,0.4-0.7,0.8-0.7,1.4c0,0.7,0.4,1.3,1.2,1.7c0.8,0.4,2,0.7,3.7,1.1c1.9,0.5,3.4,1,4.6,1.4s2.2,1.2,3.1,2.3
				c0.9,1.1,1.4,2.5,1.4,4.2c0,1.5-0.4,2.8-1.3,4s-2.1,2.1-3.6,2.8s-3.4,1-5.5,1C445.6,96.9,443.6,96.5,441.9,95.8z"/>
		</g>
	</g>
	<text transform="matrix(1 0 0 1 124.3672 49.0424)" class="st10 st8 st11">Cacharrería</text>
	<g>
		<path class="st2" d="M128.5,20.2c1.6-2.9,3.8-5.2,6.7-6.8c2.9-1.6,6.1-2.4,9.8-2.4c4.5,0,8.3,1.2,11.5,3.5
			c3.2,2.4,5.3,5.6,6.4,9.6h-10.1c-0.8-1.6-1.8-2.8-3.2-3.6c-1.4-0.8-2.9-1.2-4.7-1.2c-2.8,0-5.1,1-6.9,2.9c-1.8,2-2.6,4.6-2.6,7.9
			c0,3.3,0.9,5.9,2.6,7.9c1.8,2,4,2.9,6.9,2.9c1.8,0,3.3-0.4,4.7-1.2s2.4-2,3.2-3.6h10.1c-1.1,4.1-3.2,7.3-6.4,9.6
			c-3.2,2.3-7,3.5-11.5,3.5c-3.6,0-6.9-0.8-9.8-2.4c-2.9-1.6-5.1-3.9-6.7-6.8c-1.6-2.9-2.4-6.2-2.4-9.9
			C126.1,26.5,126.9,23.2,128.5,20.2z"/>
		<path class="st2" d="M168.4,25.9c1.2-2.3,2.7-4.1,4.7-5.4c2-1.2,4.2-1.9,6.7-1.9c2.1,0,4,0.4,5.5,1.3c1.6,0.9,2.8,2,3.7,3.4v-4.2
			h9.2V49h-9.2v-4.2c-0.9,1.4-2.1,2.5-3.7,3.4c-1.6,0.9-3.4,1.3-5.5,1.3c-2.4,0-4.6-0.6-6.6-1.9c-2-1.3-3.6-3.1-4.7-5.4
			c-1.2-2.3-1.7-5-1.7-8.1C166.7,31,167.3,28.3,168.4,25.9z M187.2,28.7c-1.3-1.3-2.8-2-4.6-2c-1.8,0-3.4,0.7-4.6,2
			c-1.3,1.3-1.9,3.1-1.9,5.4c0,2.3,0.6,4.1,1.9,5.4c1.3,1.3,2.8,2,4.6,2c1.8,0,3.4-0.7,4.6-2c1.3-1.3,1.9-3.1,1.9-5.4
			C189.1,31.8,188.5,30,187.2,28.7z"/>
		<path class="st2" d="M205,25.9c1.3-2.3,3-4.1,5.3-5.4c2.3-1.2,4.9-1.9,7.8-1.9c3.8,0,6.9,1,9.4,2.9c2.5,2,4.2,4.7,5,8.3h-9.8
			c-0.8-2.3-2.4-3.4-4.8-3.4c-1.7,0-3,0.7-4,2c-1,1.3-1.5,3.2-1.5,5.6c0,2.4,0.5,4.3,1.5,5.6c1,1.3,2.3,2,4,2c2.4,0,3.9-1.1,4.8-3.4
			h9.8c-0.8,3.5-2.4,6.3-5,8.3c-2.5,2-5.7,3-9.4,3c-2.9,0-5.5-0.6-7.8-1.9s-4-3-5.3-5.4c-1.3-2.3-1.9-5-1.9-8.1
			C203.1,31,203.7,28.3,205,25.9z"/>
		<path class="st2" d="M263.9,22.2c2.1,2.3,3.1,5.4,3.1,9.4V49h-9.1V32.8c0-2-0.5-3.6-1.6-4.7c-1-1.1-2.4-1.7-4.2-1.7
			s-3.1,0.6-4.2,1.7c-1,1.1-1.6,2.7-1.6,4.7V49h-9.2V9.4h9.2v13.8c0.9-1.3,2.2-2.4,3.8-3.2c1.6-0.8,3.4-1.2,5.4-1.2
			C259.1,18.8,261.9,20,263.9,22.2z"/>
		<path class="st2" d="M273.4,25.9c1.2-2.3,2.7-4.1,4.7-5.4c2-1.2,4.2-1.9,6.7-1.9c2.1,0,4,0.4,5.5,1.3c1.6,0.9,2.8,2,3.7,3.4v-4.2
			h9.2V49H294v-4.2c-0.9,1.4-2.1,2.5-3.7,3.4c-1.6,0.9-3.4,1.3-5.5,1.3c-2.4,0-4.6-0.6-6.6-1.9c-2-1.3-3.6-3.1-4.7-5.4
			c-1.2-2.3-1.7-5-1.7-8.1C271.6,31,272.2,28.3,273.4,25.9z M292.1,28.7c-1.3-1.3-2.8-2-4.6-2c-1.8,0-3.4,0.7-4.6,2
			c-1.3,1.3-1.9,3.1-1.9,5.4c0,2.3,0.6,4.1,1.9,5.4c1.3,1.3,2.8,2,4.6,2c1.8,0,3.4-0.7,4.6-2c1.3-1.3,1.9-3.1,1.9-5.4
			C294,31.8,293.4,30,292.1,28.7z"/>
		<path class="st2" d="M323,20.2c1.6-0.9,3.4-1.4,5.4-1.4v9.7h-2.5c-2.3,0-4,0.5-5.1,1.5c-1.1,1-1.7,2.7-1.7,5.2V49h-9.2V19.1h9.2v5
			C320,22.5,321.4,21.2,323,20.2z"/>
		<path class="st2" d="M345.9,20.2c1.6-0.9,3.4-1.4,5.4-1.4v9.7h-2.5c-2.3,0-4,0.5-5.1,1.5c-1.1,1-1.7,2.7-1.7,5.2V49h-9.2V19.1h9.2
			v5C343,22.5,344.3,21.2,345.9,20.2z"/>
		<path class="st2" d="M383.7,36.3H363c0.1,1.9,0.7,3.3,1.8,4.3c1.1,1,2.3,1.5,3.9,1.5c2.3,0,3.9-1,4.8-2.9h9.8
			c-0.5,2-1.4,3.7-2.7,5.3c-1.3,1.6-2.9,2.8-4.9,3.7c-2,0.9-4.2,1.3-6.6,1.3c-2.9,0-5.5-0.6-7.8-1.9s-4.1-3-5.4-5.4
			c-1.3-2.3-1.9-5-1.9-8.1c0-3.1,0.6-5.8,1.9-8.1c1.3-2.3,3-4.1,5.3-5.4c2.3-1.2,4.9-1.9,7.9-1.9c2.9,0,5.5,0.6,7.7,1.8
			c2.3,1.2,4,2.9,5.3,5.2c1.3,2.2,1.9,4.9,1.9,7.9C383.9,34.5,383.8,35.4,383.7,36.3z M374.5,31.2c0-1.6-0.5-2.8-1.6-3.8
			c-1.1-0.9-2.4-1.4-4-1.4c-1.5,0-2.8,0.4-3.9,1.3c-1.1,0.9-1.7,2.2-2,3.8H374.5z"/>
		<path class="st2" d="M401.9,20.2c1.6-0.9,3.4-1.4,5.4-1.4v9.7h-2.5c-2.3,0-4,0.5-5.1,1.5c-1.1,1-1.7,2.7-1.7,5.2V49h-9.2V19.1h9.2
			v5C398.9,22.5,400.3,21.2,401.9,20.2z"/>
		<path class="st2" d="M423.1,11.7l-12.9,5.4v-6.3l12.9-6.2V11.7z M421.5,19.1V49h-9.2V19.1H421.5z"/>
		<path class="st2" d="M428.7,25.9c1.2-2.3,2.7-4.1,4.7-5.4c2-1.2,4.2-1.9,6.7-1.9c2.1,0,4,0.4,5.5,1.3c1.6,0.9,2.8,2,3.7,3.4v-4.2
			h9.2V49h-9.2v-4.2c-0.9,1.4-2.1,2.5-3.7,3.4c-1.6,0.9-3.4,1.3-5.5,1.3c-2.4,0-4.6-0.6-6.6-1.9c-2-1.3-3.6-3.1-4.7-5.4
			c-1.2-2.3-1.7-5-1.7-8.1C427,31,427.6,28.3,428.7,25.9z M447.5,28.7c-1.3-1.3-2.8-2-4.6-2c-1.8,0-3.4,0.7-4.6,2
			c-1.3,1.3-1.9,3.1-1.9,5.4c0,2.3,0.6,4.1,1.9,5.4c1.3,1.3,2.8,2,4.6,2c1.8,0,3.4-0.7,4.6-2c1.3-1.3,1.9-3.1,1.9-5.4
			C449.4,31.8,448.8,30,447.5,28.7z"/>
	</g>
</g>
</svg>
