<?xml version="1.0" encoding="utf-8"?>
<!-- Generator: Adobe Illustrator 25.0.1, SVG Export Plug-In . SVG Version: 6.00 Build 0)  -->
<svg version="1.1" id="Layer_1" xmlns="http://www.w3.org/2000/svg" xmlns:xlink="http://www.w3.org/1999/xlink" x="0px" y="0px"
	 viewBox="0 0 400 400" style="enable-background:new 0 0 400 400;" xml:space="preserve">
<style type="text/css">
	.st0{fill:none;stroke:#414143;stroke-width:2;stroke-linecap:round;stroke-miterlimit:10;}
	.st1{fill:#49DAC2;}
	.st2{fill:#414143;}
	.st3{fill:#FBF8EE;}
	.st4{fill:#FCA11B;}
</style>
<g id="OBJECTS">
	<g>
		<path class="st0" d="M190,62.6c25.3,0,29.6,41.5,29.6,41.5"/>
		<path class="st1" d="M149.4,91.1v34.5c2.8-0.6,5.8-0.9,8.8-0.9c25.1,0,45.5,20.4,45.5,45.5c0,13.4-8,26.3-17.4,36.9h64.4
			c7.7,0,14.1-6.2,14.1-14.1V91.1H149.4z"/>
		<path class="st2" d="M239.6,91.1V193c0,7.7,6.2,14.1,14.1,14.1h12.4c7.7,0,14.1-6.2,14.1-14.1V91.1H239.6z"/>
		<path class="st3" d="M163.7,104.3c0,2.1-1.6,3.7-3.7,3.7s-3.7-1.6-3.7-3.7s1.6-3.7,3.7-3.7C162,100.7,163.7,102.4,163.7,104.3z"/>
		<path class="st3" d="M209.8,104.3c0,2.1-1.6,3.7-3.7,3.7s-3.7-1.6-3.7-3.7s1.6-3.7,3.7-3.7C208.2,100.7,209.8,102.4,209.8,104.3z"
			/>
		<path class="st3" d="M269.5,104.3c0,2.1-1.6,3.7-3.7,3.7s-3.7-1.6-3.7-3.7s1.6-3.7,3.7-3.7C268,100.7,269.5,102.4,269.5,104.3z"/>
		<path class="st0" d="M206.2,104.2c0,0,4.5-41.5,29.8-41.5s29.6,41.5,29.6,41.5"/>
		<path class="st0" d="M160.3,104.2c0,0,4.5-41.5,29.8-41.5"/>
		<g>
			<path class="st4" d="M157.7,134.4c-19.3,0-35,15.6-35,35c0,12.4,8.9,24.3,17.7,32.9h-0.1c8.6,8.6,17.3,14.1,17.3,14.1l0,0h0.1
				c0,0,35-22.8,35-47C192.5,150,176.9,134.4,157.7,134.4z M135,165.6c0-12.5,10.1-22.6,22.8-22.6c12.5,0,22.8,10.1,22.8,22.8
				c-0.1,12.5-10.3,22.6-22.8,22.6S135,178.3,135,165.6z"/>
			<path class="st4" d="M157.7,182.3c-9.2,0-16.5-7.4-16.5-16.5c0-9.2,7.4-16.5,16.5-16.5c9.2,0,16.5,7.4,16.5,16.5
				C174.2,174.8,166.8,182.3,157.7,182.3z"/>
		</g>
	</g>
</g>
<g id="TEXTS">
	<g>
		<g>
			<path class="st4" d="M17.8,295.4c1.5-2.8,3.7-4.9,6.4-6.4c2.8-1.5,6-2.4,9.4-2.4c4.2,0,7.9,1,10.9,3.3c3,2.2,5.1,5.4,6.1,9.2
				h-9.5c-0.6-1.5-1.8-2.7-3-3.4c-1.3-0.7-2.8-1.2-4.5-1.2c-2.7,0-4.9,0.9-6.5,2.8s-2.4,4.3-2.4,7.6c0,3.1,0.9,5.7,2.4,7.6
				s3.9,2.8,6.5,2.8c1.6,0,3.1-0.4,4.5-1.2c1.3-0.7,2.4-1.9,3-3.4h9.5c-1,3.9-3,6.8-6.1,9.1c-3,2.2-6.7,3.3-10.9,3.3
				c-3.4,0-6.5-0.7-9.4-2.4c-2.8-1.5-4.9-3.7-6.4-6.4c-1.5-2.8-2.4-6-2.4-9.4C15.5,301.3,16.4,298.2,17.8,295.4z"/>
			<path class="st4" d="M61.3,321.4c-2.2-1.2-4-2.8-5.2-5.1c-1.2-2.2-1.9-4.8-1.9-7.7c0-2.8,0.6-5.5,1.9-7.7
				c1.3-2.2,3.1-3.9,5.4-5.1s4.8-1.8,7.6-1.8s5.4,0.6,7.6,1.8c2.2,1.2,4,2.8,5.4,5.1c1.3,2.2,1.9,4.8,1.9,7.7s-0.6,5.5-1.9,7.7
				s-3.1,3.9-5.4,5.1s-4.8,1.8-7.6,1.8C66.1,323.1,63.5,322.6,61.3,321.4z M73.1,313.8c1.2-1.2,1.8-3,1.8-5.2s-0.6-4-1.6-5.2
				s-2.5-1.9-4.2-1.9s-3.1,0.6-4.2,1.8c-1,1.2-1.6,3-1.6,5.4s0.6,4,1.6,5.2s2.4,1.9,4.2,1.9C70.5,315.6,71.9,315,73.1,313.8z"/>
			<path class="st4" d="M93.3,321.9c-1.9-0.9-3.4-1.9-4.6-3.4c-1-1.5-1.8-3.1-1.9-5.1h8.6c0.1,1,0.6,1.8,1.3,2.4
				c0.7,0.6,1.8,0.9,3,0.9c1,0,1.9-0.1,2.5-0.6c0.6-0.4,0.9-1,0.9-1.6c0-0.7-0.4-1.5-1.2-1.8c-0.9-0.4-2.2-0.7-4.2-1.3
				c-1.9-0.4-3.7-1-5.1-1.5c-1.3-0.6-2.5-1.3-3.6-2.4c-1-1-1.5-2.7-1.5-4.6c0-1.6,0.4-3.1,1.3-4.5s2.2-2.4,4-3.3
				c1.8-0.7,3.9-1.2,6.2-1.2c3.6,0,6.4,0.9,8.5,2.7c2.1,1.8,3.3,4.2,3.6,7h-8c-0.1-1-0.6-1.8-1.3-2.4c-0.7-0.6-1.6-0.9-2.8-0.9
				c-1,0-1.8,0.1-2.4,0.6c-0.6,0.4-0.7,0.9-0.7,1.5c0,0.7,0.4,1.5,1.3,1.9s2.2,0.7,4.2,1.2c2.1,0.6,3.7,1,5.1,1.5s2.4,1.3,3.4,2.5
				s1.5,2.8,1.5,4.6c0,1.6-0.4,3.1-1.5,4.5c-0.9,1.3-2.4,2.4-4,3.1s-3.7,1-6.1,1C97.3,323.1,95.2,322.6,93.3,321.9z"/>
			<path class="st4" d="M116.7,300.9c1-2.2,2.5-3.9,4.6-5.1c1.9-1.2,4-1.8,6.4-1.8c1.9,0,3.7,0.4,5.4,1.2c1.5,0.7,2.7,1.9,3.4,3.3
				v-4h8.8v28.4h-8.8v-4c-0.9,1.3-1.9,2.4-3.6,3.3c-1.6,0.9-3.3,1.2-5.4,1.2c-2.4,0-4.5-0.6-6.4-1.8c-1.9-1.2-3.4-2.8-4.6-5.1
				c-1-2.2-1.6-4.8-1.6-7.7S115.5,303,116.7,300.9z M134.5,303.4c-1.2-1.2-2.7-1.9-4.5-1.9s-3.3,0.6-4.5,1.9c-1.2,1.2-1.8,3-1.8,5.1
				s0.6,3.9,1.8,5.2c1.2,1.2,2.7,1.9,4.5,1.9s3.3-0.6,4.5-1.9c1.2-1.2,1.8-3,1.8-5.1S135.7,304.6,134.5,303.4z"/>
			<path class="st4" d="M156.2,321.9c-1.9-0.9-3.4-1.9-4.6-3.4c-1-1.5-1.8-3.1-1.9-5.1h8.6c0.1,1,0.6,1.8,1.3,2.4s1.8,0.9,3,0.9
				c1,0,1.9-0.1,2.5-0.6c0.6-0.4,0.9-1,0.9-1.6c0-0.7-0.4-1.5-1.2-1.8c-0.9-0.4-2.2-0.7-4.2-1.3c-1.9-0.4-3.7-1-5.1-1.5
				c-1.3-0.4-2.5-1.3-3.6-2.4c-1-1-1.5-2.7-1.5-4.6c0-1.6,0.4-3.1,1.3-4.5s2.2-2.4,4-3.3s3.9-1.2,6.2-1.2c3.6,0,6.4,0.9,8.5,2.7
				s3.3,4.2,3.6,7h-8c-0.1-1-0.6-1.8-1.3-2.4s-1.6-0.9-2.8-0.9c-1,0-1.8,0.1-2.4,0.6c-0.6,0.4-0.7,0.9-0.7,1.5
				c0,0.7,0.4,1.5,1.3,1.9c0.9,0.4,2.2,0.7,4.2,1.2c2.1,0.6,3.7,1,5.1,1.5c1.3,0.4,2.4,1.3,3.4,2.5s1.5,2.8,1.5,4.6
				c0,1.6-0.4,3.1-1.5,4.5s-2.4,2.4-4,3.1c-1.8,0.7-3.7,1-6.1,1C160.4,323.1,158.3,322.6,156.2,321.9z"/>
			<path class="st4" d="M217.2,307.4c1.2,1.6,1.9,3.4,1.9,5.5c0,3-1,5.4-3.1,7.1c-2.1,1.8-5.1,2.7-8.8,2.7h-16.7v-35.9h16.1
				c3.7,0,6.4,0.9,8.5,2.4c2.1,1.6,3.1,3.9,3.1,6.8c0,2.1-0.6,3.9-1.6,5.2c-1,1.5-2.5,2.4-4.5,2.8
				C214.3,304.7,216.1,305.9,217.2,307.4z M199.4,301.5h5.7c1.5,0,2.5-0.3,3.3-0.9c0.7-0.6,1-1.5,1-2.8c0-1.2-0.3-2.1-1-2.8
				c-0.7-0.6-1.9-1-3.3-1h-5.7V301.5z M209.1,314.7c0.7-0.6,1.2-1.6,1.2-2.8s-0.4-2.2-1.2-3c-0.9-0.6-1.9-1-3.4-1h-6.2v7.9h6.4
				C207.3,315.6,208.3,315.3,209.1,314.7z"/>
			<path class="st4" d="M229.6,321.4c-2.2-1.2-4-2.8-5.2-5.1c-1.2-2.2-1.9-4.8-1.9-7.7c0-2.8,0.6-5.5,1.9-7.7
				c1.3-2.2,3.1-3.9,5.4-5.1s4.8-1.8,7.6-1.8s5.4,0.6,7.6,1.8c2.2,1.2,4,2.8,5.4,5.1c1.3,2.2,1.9,4.8,1.9,7.7s-0.6,5.5-1.9,7.7
				c-1.3,2.2-3.1,3.9-5.4,5.1s-4.8,1.8-7.6,1.8C234.4,323.1,231.8,322.6,229.6,321.4z M241.4,313.8c1.2-1.2,1.8-3,1.8-5.2
				s-0.6-4-1.6-5.2s-2.5-1.9-4.2-1.9s-3.1,0.6-4.2,1.8c-1,1.2-1.6,3-1.6,5.4s0.6,4,1.6,5.2s2.4,1.9,4.2,1.9
				C238.8,315.6,240.2,315,241.4,313.8z"/>
			<path class="st4" d="M282,297.3c1.9,2.1,3,5.1,3,8.9v16.7h-8.6v-15.5c0-1.9-0.4-3.3-1.5-4.5c-1-1-2.4-1.5-4-1.5s-3,0.6-4,1.5
				c-1,1-1.5,2.5-1.5,4.5v15.5h-8.8v-28.4h8.8v3.7c0.9-1.2,2.1-2.2,3.6-3c1.5-0.7,3.3-1,5.1-1C277.2,294,279.9,295.1,282,297.3z"/>
			<path class="st4" d="M291.7,290c-1-0.9-1.5-1.9-1.5-3.3s0.4-2.4,1.5-3.4c1-0.9,2.2-1.3,3.7-1.3s2.8,0.4,3.7,1.3
				c1,0.9,1.5,1.9,1.5,3.4c0,1.3-0.4,2.4-1.5,3.3c-1,0.9-2.2,1.3-3.7,1.3C293.9,291.4,292.5,290.9,291.7,290z M299.7,294.3v28.4
				h-8.8v-28.4H299.7z"/>
			<path class="st4" d="M321.9,315.3v7.4h-4.5c-3.1,0-5.7-0.7-7.4-2.4c-1.8-1.5-2.7-4.2-2.7-7.6v-11.3h-3.4v-7.1h3.4v-6.8h8.8v6.8
				h5.7v7.1h-5.7v11.5c0,0.9,0.1,1.5,0.6,1.9s1,0.6,1.9,0.6L321.9,315.3L321.9,315.3z"/>
			<path class="st4" d="M326.6,300.9c1-2.2,2.5-3.9,4.6-5.1c1.9-1.2,4-1.8,6.4-1.8c1.9,0,3.7,0.4,5.4,1.2c1.5,0.7,2.7,1.9,3.4,3.3
				v-4h8.8v28.4h-8.8v-4c-0.9,1.3-1.9,2.4-3.6,3.3c-1.5,0.7-3.3,1.2-5.4,1.2c-2.4,0-4.5-0.6-6.4-1.8c-1.9-1.2-3.4-2.8-4.6-5.1
				c-1-2.2-1.6-4.8-1.6-7.7S325.6,303,326.6,300.9z M344.5,303.4c-1.2-1.2-2.7-1.9-4.5-1.9s-3.3,0.6-4.5,1.9c-1.2,1.2-1.8,3-1.8,5.1
				s0.6,3.9,1.8,5.2c1.2,1.2,2.7,1.9,4.5,1.9s3.3-0.6,4.5-1.9c1.2-1.2,1.8-3,1.8-5.1S345.8,304.6,344.5,303.4z"/>
			<path class="st4" d="M366.4,321.9c-1.9-0.9-3.4-1.9-4.6-3.4c-1-1.5-1.8-3.1-1.9-5.1h8.6c0.1,1,0.6,1.8,1.3,2.4
				c0.7,0.6,1.8,0.9,3,0.9c1,0,1.9-0.1,2.5-0.6c0.6-0.4,0.9-1,0.9-1.6c0-0.7-0.4-1.5-1.2-1.8c-0.9-0.4-2.2-0.7-4.2-1.3
				c-1.9-0.4-3.7-1-5.1-1.5c-1.3-0.4-2.5-1.3-3.6-2.4c-1-1-1.5-2.7-1.5-4.6c0-1.6,0.4-3.1,1.3-4.5s2.2-2.4,4-3.3
				c1.8-0.7,3.9-1.2,6.2-1.2c3.6,0,6.4,0.9,8.5,2.7s3.3,4.2,3.6,7h-8c-0.1-1-0.6-1.8-1.3-2.4c-0.7-0.6-1.6-0.9-2.8-0.9
				c-1,0-1.8,0.1-2.4,0.6c-0.6,0.4-0.7,0.9-0.7,1.5c0,0.7,0.4,1.5,1.3,1.9s2.2,0.7,4.2,1.2c2.1,0.6,3.7,1,5.1,1.5s2.4,1.3,3.4,2.5
				s1.5,2.8,1.5,4.6c0,1.6-0.4,3.1-1.5,4.5s-2.4,2.4-4,3.1s-3.7,1-6.1,1C370.4,323.1,368.1,322.6,366.4,321.9z"/>
		</g>
	</g>
	<g>
		<g>
			<path class="st2" d="M36.6,245.2c1.5-2.8,3.7-5.1,6.4-6.5c2.8-1.5,6-2.4,9.5-2.4c4.3,0,8,1.2,11.2,3.4c3.1,2.4,5.1,5.4,6.2,9.2
				h-9.8c-0.7-1.5-1.8-2.7-3.1-3.4s-2.8-1.2-4.5-1.2c-2.7,0-4.9,0.9-6.7,2.8c-1.8,1.9-2.5,4.5-2.5,7.6s0.9,5.7,2.5,7.6
				c1.8,1.9,3.9,2.8,6.7,2.8c1.8,0,3.1-0.4,4.5-1.2c1.3-0.7,2.4-1.9,3.1-3.4h9.8c-1,4-3.1,7-6.2,9.2c-3.1,2.2-6.7,3.4-11.2,3.4
				c-3.4,0-6.7-0.7-9.5-2.4c-2.8-1.5-4.9-3.7-6.4-6.5s-2.4-6-2.4-9.5C34.2,251.2,35,248.1,36.6,245.2z"/>
			<path class="st2" d="M75.1,250.7c1.2-2.2,2.7-4,4.5-5.2c1.9-1.2,4-1.8,6.4-1.8c2.1,0,3.9,0.4,5.4,1.2c1.5,0.9,2.7,1.9,3.6,3.3v-4
				h8.9v28.9H95v-4c-0.9,1.3-2.1,2.4-3.6,3.3s-3.3,1.2-5.4,1.2c-2.4,0-4.5-0.6-6.4-1.8c-1.9-1.2-3.4-3-4.5-5.2
				c-1.2-2.2-1.6-4.8-1.6-7.9C73.3,255.6,73.9,253,75.1,250.7z M93.1,253.4c-1.2-1.2-2.7-1.9-4.5-1.9s-3.3,0.7-4.5,1.9
				s-1.8,3-1.8,5.2s0.6,4,1.8,5.2c1.2,1.2,2.7,1.9,4.5,1.9s3.3-0.7,4.5-1.9c1.2-1.2,1.8-3,1.8-5.2C95.1,256.4,94.5,254.6,93.1,253.4
				z"/>
			<path class="st2" d="M110.4,250.7c1.2-2.2,2.8-4,5.1-5.2c2.2-1.2,4.8-1.8,7.6-1.8c3.7,0,6.7,0.9,9.1,2.8c2.4,1.9,4,4.5,4.8,8
				h-9.5c-0.7-2.2-2.4-3.3-4.6-3.3c-1.6,0-2.8,0.7-3.9,1.9c-0.9,1.2-1.5,3.1-1.5,5.4c0,2.4,0.4,4.2,1.5,5.4c0.9,1.2,2.2,1.9,3.9,1.9
				c2.4,0,3.7-1,4.6-3.3h9.5c-0.7,3.4-2.4,6.1-4.8,8c-2.4,1.9-5.5,2.8-9.1,2.8c-2.8,0-5.4-0.6-7.6-1.8c-2.2-1.2-3.9-2.8-5.1-5.2
				c-1.2-2.2-1.8-4.8-1.8-7.9C108.6,255.6,109.2,253,110.4,250.7z"/>
			<path class="st2" d="M167.2,247.2c2.1,2.2,3,5.2,3,9.1v16.8h-8.8v-15.6c0-1.9-0.4-3.4-1.5-4.5c-0.9-1-2.4-1.6-4-1.6
				c-1.8,0-3,0.6-4,1.6c-0.9,1-1.5,2.7-1.5,4.5v15.6h-8.9v-38.2h8.9v13.4c0.9-1.2,2.1-2.4,3.7-3.1c1.6-0.7,3.3-1.2,5.2-1.2
				C162.6,243.7,165.3,244.9,167.2,247.2z"/>
			<path class="st2" d="M176.5,250.7c1.2-2.2,2.7-4,4.5-5.2c1.9-1.2,4-1.8,6.4-1.8c2.1,0,3.9,0.4,5.4,1.2c1.5,0.9,2.7,1.9,3.6,3.3
				v-4h8.9v28.9h-8.9v-4c-0.9,1.3-2.1,2.4-3.6,3.3s-3.3,1.2-5.4,1.2c-2.4,0-4.5-0.6-6.4-1.8c-1.9-1.2-3.4-3-4.5-5.2
				c-1.2-2.2-1.6-4.8-1.6-7.9C174.7,255.6,175.3,253,176.5,250.7z M194.5,253.4c-1.2-1.2-2.7-1.9-4.5-1.9s-3.3,0.7-4.5,1.9
				s-1.8,3-1.8,5.2s0.6,4,1.8,5.2s2.7,1.9,4.5,1.9s3.3-0.7,4.5-1.9c1.2-1.2,1.8-3,1.8-5.2S195.8,254.6,194.5,253.4z"/>
			<path class="st2" d="M224.4,245.2c1.5-0.9,3.3-1.3,5.2-1.3v9.4h-2.4c-2.2,0-3.9,0.4-4.9,1.5c-1,0.9-1.6,2.7-1.6,5.1v13.4h-8.9
				v-28.9h8.9v4.8C221.4,247.3,222.8,246.1,224.4,245.2z"/>
			<path class="st2" d="M246.4,245.2c1.5-0.9,3.3-1.3,5.2-1.3v9.4h-2.4c-2.2,0-3.9,0.4-4.9,1.5c-1,0.9-1.6,2.7-1.6,5.1v13.4h-8.9
				v-28.9h8.9v4.8C243.6,247.3,244.9,246.1,246.4,245.2z"/>
			<path class="st2" d="M282.9,260.7H263c0.1,1.8,0.7,3.1,1.8,4.2c1,0.9,2.2,1.5,3.7,1.5c2.2,0,3.7-0.9,4.6-2.8h9.5
				c-0.4,1.9-1.3,3.6-2.7,5.1c-1.2,1.5-2.8,2.7-4.8,3.6c-1.9,0.9-4,1.2-6.4,1.2c-2.8,0-5.4-0.6-7.6-1.8c-2.2-1.2-4-2.8-5.2-5.2
				c-1.2-2.2-1.8-4.8-1.8-7.9c0-3,0.6-5.7,1.8-7.9s2.8-4,5.1-5.2c2.2-1.2,4.8-1.8,7.6-1.8s5.4,0.6,7.4,1.8c2.2,1.2,3.9,2.8,5.1,5.1
				c1.2,2.1,1.8,4.8,1.8,7.6C283.2,258.9,283,259.8,282.9,260.7z M274.1,255.8c0-1.5-0.4-2.7-1.5-3.7c-1-0.9-2.4-1.3-3.9-1.3
				s-2.7,0.4-3.7,1.2s-1.6,2.1-1.9,3.7L274.1,255.8L274.1,255.8z"/>
			<path class="st2" d="M300.4,245.2c1.5-0.9,3.3-1.3,5.2-1.3v9.4h-2.4c-2.2,0-3.9,0.4-4.9,1.5c-1,0.9-1.6,2.7-1.6,5.1v13.4h-8.9
				v-28.9h8.9v4.8C297.6,247.3,298.9,246.1,300.4,245.2z"/>
			<path class="st2" d="M321,236.9l-12.5,5.2V236l12.5-6V236.9z M319.5,244v28.9h-8.9V244H319.5z"/>
			<path class="st2" d="M326.3,250.7c1.2-2.2,2.7-4,4.5-5.2c1.9-1.2,4-1.8,6.4-1.8c2.1,0,3.9,0.4,5.4,1.2c1.5,0.9,2.7,1.9,3.6,3.3
				v-4h8.9v28.9h-8.9v-4c-0.9,1.3-2.1,2.4-3.6,3.3s-3.3,1.2-5.4,1.2c-2.4,0-4.5-0.6-6.4-1.8c-1.9-1.2-3.4-3-4.5-5.2
				c-1.2-2.2-1.6-4.8-1.6-7.9C324.7,255.6,325.3,253,326.3,250.7z M344.5,253.4c-1.2-1.2-2.7-1.9-4.5-1.9s-3.3,0.7-4.5,1.9
				s-1.8,3-1.8,5.2s0.6,4,1.8,5.2c1.2,1.2,2.7,1.9,4.5,1.9s3.3-0.7,4.5-1.9c1.2-1.2,1.8-3,1.8-5.2
				C346.4,256.4,345.8,254.6,344.5,253.4z"/>
		</g>
	</g>
</g>
</svg>
